<?xml version="1.0" standalone="no"?>
<!DOCTYPE svg PUBLIC "-//W3C//DTD SVG 20010904//EN"
 "http://www.w3.org/TR/2001/REC-SVG-20010904/DTD/svg10.dtd">
<svg version="1.0" xmlns="http://www.w3.org/2000/svg"
 width="512.000000pt" height="512.000000pt" viewBox="0 0 512.000000 512.000000"
 preserveAspectRatio="xMidYMid meet">

<g transform="translate(0.000000,512.000000) scale(0.100000,-0.100000)"
fill="#000000" stroke="none">
<path d="M1967 4743 c-20 -20 9 -56 163 -203 94 -90 170 -166 170 -170 0 -5
-30 -25 -67 -45 -145 -80 -297 -212 -430 -373 -115 -139 -125 -154 -218 -302
-90 -146 -111 -170 -181 -209 -69 -40 -127 -108 -148 -176 -21 -64 -24 -190
-6 -254 11 -41 10 -46 -26 -115 -35 -65 -38 -79 -42 -168 -5 -117 17 -202 76
-293 64 -99 188 -195 252 -195 11 0 23 -8 26 -17 18 -57 36 -85 64 -95 27 -9
30 -14 30 -51 0 -64 20 -81 108 -93 46 -6 52 -9 52 -31 0 -28 36 -46 113 -57
58 -9 61 -22 5 -31 -29 -5 -54 -19 -78 -43 -27 -27 -44 -35 -77 -38 -53 -4
-175 -62 -230 -108 -22 -20 -43 -36 -46 -36 -3 0 -8 16 -11 36 -4 19 -30 79
-58 132 l-52 97 -6 141 c-5 129 -8 144 -33 186 -50 85 -123 121 -200 98 -52
-15 -114 -77 -122 -124 l-7 -34 -41 19 c-47 21 -86 24 -136 9 -72 -20 -128
-77 -192 -195 -84 -156 -89 -167 -89 -212 0 -87 81 -288 175 -433 35 -55 40
-70 33 -90 -5 -14 -8 -63 -6 -110 2 -72 8 -94 34 -145 17 -33 39 -84 48 -112
37 -113 151 -227 275 -274 41 -16 80 -22 146 -23 102 -1 157 15 240 70 l50 33
6 -76 c6 -62 3 -83 -12 -118 -29 -65 -69 -241 -76 -333 l-6 -82 928 2 929 3
22 56 c12 31 27 87 34 125 17 97 18 97 38 89 95 -42 130 -49 242 -49 108 0
120 2 197 35 71 29 95 46 173 123 49 49 103 112 119 140 17 28 50 75 76 105
55 64 75 109 75 166 0 27 12 68 32 111 56 120 49 207 -23 290 l-38 45 33 52
c83 129 316 534 316 548 0 23 -271 299 -294 299 -75 0 -270 -82 -350 -147
l-49 -40 -81 82 c-65 65 -99 90 -171 125 -85 42 -95 45 -176 45 l-87 0 -10 65
c-6 36 -14 84 -17 107 -4 23 -24 71 -46 107 -21 36 -39 74 -39 86 0 45 33 152
49 157 149 51 252 114 339 208 78 83 115 159 120 246 4 59 1 74 -24 120 -33
59 -114 131 -203 181 l-59 33 -5 60 c-2 33 -3 62 -1 64 4 4 532 -42 642 -55
l42 -5 0 -57 c0 -31 3 -66 5 -77 4 -15 -2 -24 -24 -36 -41 -24 -50 -71 -21
-111 l21 -29 -25 -20 c-34 -27 -53 -96 -72 -259 -8 -74 -19 -152 -25 -174 -6
-21 -9 -39 -7 -40 25 -16 62 -25 72 -17 7 5 21 5 36 -1 30 -13 103 -10 111 4
3 5 21 7 41 3 20 -4 38 -3 41 2 6 10 -18 346 -29 398 -3 17 -18 47 -32 68 -20
30 -23 42 -15 56 6 9 14 31 18 49 6 27 2 36 -24 63 -33 33 -38 48 -20 66 6 6
10 32 8 57 -4 39 -1 46 16 48 11 2 20 10 20 20 0 18 -21 40 -529 563 -203 209
-372 383 -376 387 -6 8 -131 19 -660 58 -151 11 -360 27 -464 35 -209 17 -260
18 -269 8z m423 -58 c91 -8 340 -26 554 -41 l388 -28 117 -120 c64 -66 135
-138 159 -162 24 -23 54 -57 68 -75 14 -19 29 -34 35 -34 5 0 13 -5 17 -11 4
-7 101 -109 216 -228 115 -119 216 -227 224 -239 8 -12 -178 170 -413 406
l-428 427 -201 15 c-521 38 -1011 79 -1069 88 -9 2 -23 9 -30 16 -13 14 33 12
363 -14z m140 -292 c-8 -3 -60 -28 -115 -55 -242 -120 -448 -304 -692 -615
-84 -107 -129 -165 -156 -203 -24 -33 27 59 77 140 225 362 508 616 798 715
40 13 80 24 88 24 13 -1 13 -1 0 -6z m508 -135 c188 -91 253 -325 126 -452
-62 -62 -76 -66 -233 -66 l-144 0 -52 40 c-81 62 -135 152 -135 223 0 46 23
119 49 156 35 49 109 103 159 118 65 18 172 10 230 -19z m231 -643 c117 -19
228 -48 273 -71 52 -26 127 -84 139 -106 10 -18 7 -17 -23 5 -85 65 -238 116
-418 138 -228 28 -580 -20 -915 -124 -215 -67 -458 -169 -494 -207 -21 -22
-22 -22 -12 -3 18 35 203 186 291 238 8 4 -5 -10 -30 -33 -25 -23 -53 -44 -62
-47 -10 -4 -18 -11 -18 -16 0 -11 51 -4 85 11 51 24 271 102 378 134 287 87
583 117 806 81z m952 -115 c14 -8 19 -21 19 -52 0 -23 -3 -39 -6 -35 -3 3 -15
-3 -27 -14 -27 -25 -33 -24 -52 5 -23 35 -16 78 15 93 30 15 27 15 51 3z
m-2721 -70 c0 -5 -7 -10 -15 -10 -7 0 -18 -6 -22 -14 -4 -7 -18 -18 -31 -25
-12 -7 -20 -16 -17 -21 6 -10 -50 -52 -58 -43 -4 3 -14 0 -23 -8 -16 -13 -16
-12 -6 8 14 26 73 73 127 101 48 25 45 24 45 12z m1275 -35 c55 -8 118 -19
140 -25 51 -14 199 -62 204 -66 2 -2 -13 -22 -32 -45 -40 -46 -66 -97 -97
-189 -27 -80 -22 -93 15 -40 16 23 49 60 74 81 77 68 123 40 145 -92 l13 -74
11 35 c7 20 16 69 20 110 l8 75 13 -45 c14 -47 10 -159 -8 -215 -5 -17 -19
-74 -31 -127 l-23 -97 -37 21 -36 21 8 53 c15 96 -19 193 -77 221 -31 15 -35
15 -66 -3 -43 -25 -67 -67 -83 -146 -12 -62 -13 -63 -52 -71 -92 -20 -170 -50
-207 -79 -46 -36 -105 -124 -113 -168 -8 -36 -22 -38 -105 -10 -101 34 -180
95 -234 180 -13 21 -28 41 -33 44 -11 6 -54 -86 -73 -154 -20 -77 -17 -189 8
-235 35 -66 112 -125 163 -125 11 0 23 -8 26 -17 3 -10 14 -35 25 -56 14 -27
17 -42 10 -51 -20 -24 -24 -139 -7 -198 30 -104 81 -142 187 -141 88 0 136 24
223 112 72 72 79 93 26 71 -37 -15 -74 -9 -203 35 -64 22 -117 48 -152 74 -63
47 -71 60 -21 30 19 -11 61 -23 93 -26 48 -5 63 -11 91 -39 46 -47 96 -60 158
-42 49 14 49 14 72 -14 51 -61 151 -57 222 10 33 32 45 37 73 34 40 -5 83 15
126 59 18 17 34 29 37 26 10 -10 -57 -131 -94 -170 -58 -60 -169 -124 -299
-171 -66 -24 -158 -61 -204 -82 -78 -36 -91 -39 -174 -39 -85 0 -95 2 -175 41
-116 56 -309 187 -402 273 -92 85 -155 178 -199 288 l-31 81 -42 -24 c-138
-79 -327 40 -417 261 -31 78 -33 204 -4 283 53 144 184 210 291 147 63 -37 90
-90 110 -215 9 -58 25 -129 36 -158 23 -61 72 -122 98 -122 32 0 65 37 98 111
25 56 44 81 75 104 58 42 60 75 11 155 -48 78 -53 129 -24 246 33 132 36 135
132 171 46 17 112 39 148 49 36 9 73 21 82 26 15 7 15 4 -2 -35 -25 -56 -50
-153 -50 -192 l1 -30 23 37 c100 164 234 184 354 54 23 -25 50 -62 59 -81 25
-52 37 -43 30 23 -9 87 -44 186 -82 237 l-35 45 43 0 c23 0 87 -7 142 -15z
m332 -451 c29 -32 46 -97 40 -157 -5 -55 -12 -65 -35 -51 -12 8 -19 30 -23 78
-6 74 -30 117 -70 126 l-23 6 24 17 c29 20 57 14 87 -19z m-99 -99 c5 -22 -18
-37 -35 -23 -17 13 -17 35 0 41 19 8 32 2 35 -18z m44 -37 c-6 -24 -8 -21 -15
27 -6 37 -5 38 7 16 7 -13 11 -33 8 -43z m19 -77 c157 -49 252 -166 252 -313
0 -89 -34 -159 -111 -228 -180 -160 -486 -96 -600 125 -37 73 -43 185 -12 246
26 52 92 124 135 146 88 47 229 57 336 24z m-1811 -478 c47 -49 60 -105 60
-250 l0 -106 49 -91 c74 -139 95 -212 94 -326 -2 -101 -25 -236 -49 -282 -18
-36 -26 -36 -19 0 4 18 -2 12 -15 -18 -65 -141 -215 -194 -354 -126 -75 37
-115 72 -185 165 -162 215 -292 490 -279 589 5 33 44 109 132 259 32 54 96
100 151 108 63 10 131 -22 143 -67 l8 -33 -60 -6 c-71 -7 -112 -26 -172 -81
-45 -41 -90 -105 -81 -114 2 -3 33 25 67 61 38 38 85 76 117 92 l54 26 79 -16
c87 -17 182 -56 217 -89 33 -31 28 -36 -21 -25 -24 5 -64 7 -89 3 -80 -12
-208 -113 -254 -199 -19 -37 -6 -50 16 -17 28 43 104 121 147 151 97 67 210
57 278 -23 48 -55 61 -101 47 -155 -14 -51 -52 -83 -98 -83 -27 0 -34 3 -29
15 17 43 15 47 -11 18 -15 -18 -41 -38 -58 -44 -29 -11 -29 -12 -8 -18 l23 -6
-20 -32 c-10 -18 -36 -42 -57 -53 l-38 -21 35 5 c24 4 46 18 73 47 20 23 37
39 37 36 0 -28 -54 -119 -86 -145 -21 -18 -34 -32 -28 -32 21 0 79 46 102 80
13 19 28 37 33 39 6 2 35 -22 64 -52 42 -43 58 -69 73 -119 18 -55 20 -59 21
-29 2 67 -21 112 -91 182 -75 75 -83 96 -39 97 139 4 176 180 62 301 -17 18
-38 49 -47 67 -19 40 -79 78 -160 104 -31 9 -60 23 -65 31 -15 24 -9 122 9
157 29 53 68 74 131 69 48 -3 59 -9 91 -44z m2455 -245 c46 -23 82 -44 81 -45
-2 -2 -45 17 -97 41 -96 45 -134 77 -247 210 -81 95 -41 67 68 -47 95 -99 123
-122 195 -159z m-103 234 c91 -42 174 -109 252 -201 68 -82 90 -102 61 -57
-23 35 -9 55 79 114 73 49 145 81 233 105 l43 11 109 -114 c60 -63 106 -118
103 -121 -4 -3 -77 -11 -162 -18 -85 -7 -203 -19 -262 -27 l-107 -16 -136 68
c-74 38 -165 91 -201 118 -61 45 -154 148 -154 170 0 16 79 -2 142 -32z m263
-320 c-3 -3 -11 0 -18 7 -9 10 -8 11 6 5 10 -3 15 -9 12 -12z m-1314 -59 c13
-16 12 -17 -3 -4 -10 7 -18 15 -18 17 0 8 8 3 21 -13z m600 -27 c-10 -24 -141
-288 -147 -295 -2 -2 -33 24 -69 58 -36 33 -77 68 -90 77 -14 9 -25 19 -25 23
0 4 32 17 70 30 94 30 165 62 220 100 25 17 46 31 47 31 1 0 -2 -11 -6 -24z
m-712 -25 c-6 -2 -18 4 -27 13 -15 15 -15 15 10 4 15 -7 23 -15 17 -17z m118
2 c8 -10 12 -12 8 -5 -7 14 4 16 24 3 18 -12 -40 -24 -90 -19 -39 4 -42 20 -3
24 14 2 29 5 32 8 9 9 14 7 29 -11z m-792 -71 c-6 -5 -32 -17 -60 -27 -27 -9
-66 -27 -85 -38 -19 -11 -55 -31 -80 -44 l-45 -23 28 24 c36 33 139 93 180
105 42 12 74 13 62 3z m-238 -300 c56 -52 68 -86 68 -197 0 -94 -2 -104 -34
-168 -67 -133 -191 -225 -336 -249 -176 -29 -368 62 -446 213 -24 48 -38 174
-22 203 7 13 19 2 63 -58 57 -80 113 -123 209 -163 118 -48 218 -24 322 77 79
77 103 131 121 276 7 52 15 94 18 94 3 0 20 -13 37 -28z m2453 -2 c79 -15 153
-52 211 -107 119 -110 136 -184 74 -310 -26 -53 -35 -84 -35 -121 0 -41 -6
-59 -34 -98 -19 -27 -63 -91 -97 -142 -66 -98 -121 -144 -185 -157 -31 -5 -52
2 -160 57 -131 66 -243 144 -278 191 -30 41 -29 117 2 150 38 40 77 42 157 8
39 -16 125 -53 193 -81 122 -51 166 -60 101 -21 -19 12 -97 47 -174 78 -111
46 -149 66 -182 100 -38 38 -43 48 -43 89 0 39 5 51 34 80 32 32 39 34 98 34
92 0 203 -32 329 -95 114 -58 142 -61 62 -9 -79 52 -144 81 -233 105 -109 29
-140 57 -140 125 0 40 5 51 35 80 52 49 152 66 265 44z m-1633 -281 c40 -13
107 -85 123 -134 17 -53 7 -137 -24 -190 -30 -51 -108 -95 -168 -95 -76 0
-151 48 -189 122 -25 48 -25 139 0 193 21 47 80 102 119 111 15 3 32 7 37 9
13 3 61 -4 102 -16z m-1407 -384 c13 -14 21 -25 18 -25 -2 0 -15 11 -28 25
-13 14 -21 25 -18 25 2 0 15 -11 28 -25z m2868 -275 c2 -6 12 -10 23 -10 10 0
19 -4 19 -9 0 -5 -10 -7 -22 -3 -25 6 -98 49 -98 57 0 9 75 -25 78 -35z m-57
-6 c56 -37 82 -40 159 -18 l25 7 -25 -27 c-47 -52 -94 -68 -184 -64 -90 4
-133 20 -193 73 l-38 34 86 1 c64 0 90 4 99 15 7 8 14 15 15 15 2 0 27 -16 56
-36z"/>
<path d="M2757 4158 c-29 -51 -68 -118 -85 -149 l-31 -55 42 -40 c23 -22 52
-48 64 -58 l22 -18 43 86 c23 47 45 86 48 86 3 0 13 -12 23 -27 42 -69 42 -69
77 -29 18 20 38 36 45 36 7 0 15 -18 19 -40 3 -22 11 -63 17 -91 10 -45 13
-49 32 -43 41 13 117 69 117 86 0 42 -106 284 -136 309 -13 10 -23 5 -65 -37
l-50 -49 -56 63 c-30 34 -59 62 -63 62 -5 0 -33 -42 -63 -92z"/>
<path d="M2413 3095 c-104 -64 -169 -259 -128 -389 19 -60 65 -111 110 -122
38 -9 105 4 150 29 50 28 81 83 101 179 44 208 -94 388 -233 303z m133 -31
c65 -43 103 -169 84 -276 -20 -109 -59 -164 -124 -175 l-36 -6 34 36 c89 95
83 300 -10 358 -43 26 -82 19 -129 -26 -42 -39 -43 -36 -10 20 44 77 131 108
191 69z m-23 -127 c26 -34 33 -115 17 -184 -18 -74 -78 -143 -125 -143 -40 0
-79 30 -93 70 -15 42 1 46 41 10 45 -39 78 -39 111 0 48 58 50 189 3 238 -15
16 -27 31 -27 35 0 18 56 -2 73 -26z m-75 -19 c19 -19 14 -46 -10 -59 -18 -10
-24 -8 -35 7 -17 23 -16 29 3 48 19 19 26 20 42 4z"/>
<path d="M1385 2868 c-28 -15 -65 -50 -65 -61 0 -5 14 3 31 17 19 16 43 26 63
26 36 0 91 -32 113 -66 13 -20 12 -21 -31 -20 -25 1 -51 -5 -57 -11 -10 -11
-4 -13 33 -13 69 0 92 -12 105 -55 9 -29 8 -45 -4 -82 -16 -46 -16 -50 12
-115 4 -11 1 -18 -12 -21 -15 -4 -14 -5 4 -6 30 -1 38 15 19 44 -20 30 -20 46
0 104 16 44 15 48 -6 105 -26 67 -80 133 -127 153 -39 16 -52 16 -78 1z"/>
<path d="M2450 995 c0 -35 -21 -73 -64 -114 -31 -30 -44 -35 -96 -39 -75 -5
-110 9 -155 61 -38 44 -43 39 -21 -15 23 -54 86 -105 141 -114 87 -13 157 23
194 99 22 45 29 147 11 147 -5 0 -10 -11 -10 -25z"/>
</g>
</svg>
